#N canvas 58 82 929 997 10;
#X obj 124 355 pix_data;
#X obj 139 125 pix_info . . .;
#X obj 139 65 pix_image;
#X obj 139 5 gemhead;
#X obj 146 385 unpack f f f;
#X obj 630 35 gemhead;
#X obj 630 237 colorRGB;
#X obj 470 53 cnv 15 100 60 empty empty empty 20 12 0 14 -195568 -66577
0;
#N canvas 58 87 450 300 gemwin 0;
#X obj 132 136 gemwin;
#X obj 67 89 outlet;
#X obj 67 10 inlet;
#X obj 67 41 route create;
#X msg 67 70 set destroy;
#X msg 142 68 set create;
#X msg 198 112 destroy;
#X msg 132 112 create \, 1;
#X connect 2 0 3 0;
#X connect 3 0 4 0;
#X connect 3 0 7 0;
#X connect 3 1 5 0;
#X connect 3 1 6 0;
#X connect 4 0 1 0;
#X connect 5 0 1 0;
#X connect 6 0 0 0;
#X connect 7 0 0 0;
#X restore 475 92 pd gemwin;
#X msg 475 73 destroy;
#X text 471 52 Create window:;
#X floatatom 154 265 5 0 0 0 - - -;
#X floatatom 169 305 5 0 0 0 - - -;
#X obj 264 237 tgl 15 0 empty empty empty 17 7 0 10 -262144 -1 -1 1
1;
#X obj 264 259 metro 100;
#X obj 124 561 f;
#X obj 164 561 + 1;
#X obj 124 633 %;
#X floatatom 124 685 5 0 0 0 - - -;
#X obj 319 196 hsl 128 15 2000 0.001 0 0 empty empty empty -2 -8 0
10 -262144 -1 -1 12700 1;
#X floatatom 316 216 5 0 0 0 - - -;
#X obj 154 745 sel;
#X floatatom 224 685 5 0 0 0 - - -;
#X obj 124 655 + 1;
#X obj 224 561 f;
#X obj 224 633 %;
#X obj 124 855 /;
#X obj 146 407 s r;
#X obj 180 407 s g;
#X obj 215 407 s b;
#X obj 150 145 s w;
#X obj 162 165 s h;
#X obj 139 835 r w;
#X obj 224 855 /;
#X obj 239 835 r h;
#X obj 124 877 s x;
#X obj 224 877 s y;
#X obj 154 245 r x;
#X obj 169 285 r y;
#X obj 169 725 r w;
#X obj 646 69 r r;
#X obj 139 603 r w;
#X obj 239 603 r h;
#X obj 426 458 r r;
#X obj 566 458 r g;
#X obj 706 458 r b;
#X obj 482 717 hsl 128 15 0 1 0 0 empty empty empty -2 -8 0 10 -262144
-1 -1 0 1;
#X obj 426 838 dac~;
#X obj 426 660 osc~;
#X obj 487 931 writesf~ 2;
#X msg 578 861 start;
#X msg 587 882 stop;
#X floatatom 312 316 5 0 0 0 - - -;
#X obj 425 714 +~;
#X obj 426 500 mtof;
#X obj 566 500 mtof;
#X obj 706 500 mtof;
#X obj 426 478 * 100;
#X obj 566 478 * 100;
#X obj 706 478 * 100;
#X obj 566 660 osc~;
#X obj 706 660 osc~;
#X obj 456 377 hsl 128 15 0 300 0 0 empty empty empty -2 -8 0 10 -262144
-1 -1 3633 1;
#X msg 561 816 open 5.wav;
#X obj 596 410 hsl 128 15 0 300 0 0 empty empty empty -2 -8 0 10 -262144
-1 -1 3633 1;
#X obj 736 438 hsl 128 15 0 300 0 0 empty empty empty -2 -8 0 10 -262144
-1 -1 3633 1;
#X obj 264 281 s bang;
#X obj 124 331 r bang;
#X obj 336 247 s sp;
#X obj 124 541 r bang;
#X obj 736 69 r g;
#X obj 826 69 r b;
#X msg 446 608 \$1 \$2;
#X obj 446 588 pack f f;
#X obj 491 568 r sp;
#X obj 446 630 line;
#X msg 586 608 \$1 \$2;
#X obj 586 588 pack f f;
#X obj 631 568 r sp;
#X obj 586 630 line;
#X msg 746 608 \$1 \$2;
#X obj 746 588 pack f f;
#X obj 791 568 r sp;
#X obj 746 636 line;
#X obj 247 72 openpanel;
#X msg 247 92 open \$1;
#X obj 247 52 bng 15 250 50 0 empty empty empty 17 7 0 10 -262144 -1
-1;
#X msg 453 333 100;
#X obj 646 161 nbx 5 14 -1e+37 1e+37 0 0 empty empty empty 0 -8 0 10
-261234 -1 -1 0.117647 256;
#X obj 736 161 nbx 5 14 -1e+37 1e+37 0 0 empty empty empty 0 -8 0 10
-4034 -1 -1 0 256;
#X obj 826 161 nbx 5 14 -1e+37 1e+37 0 0 empty empty empty 0 -8 0 10
-4032 -1 -1 0.505882 256;
#X msg 493 333 200;
#X obj 553 311 random 300;
#X obj 154 767 s newline;
#X obj 553 291 r newline;
#X obj 532 333 gate;
#X obj 532 311 tgl 15 0 empty empty empty 17 7 0 10 -4034 -1 -1 0 1
;
#X text 199 186 height;
#X text 258 685 current vertical line;
#X obj 736 340 hsl 128 15 0 300 0 0 empty empty empty -2 -8 0 10 -257985
-1 -1 3633 1;
#X obj 426 736 *~ 0.1;
#X floatatom 811 373 5 0 0 0 - - -;
#X msg 804 299 128;
#X msg 761 289 111;
#X obj 239 481 r h;
#X obj 224 541 f;
#X symbolatom 247 139 50 0 0 0 - - -;
#X obj 224 510 bng 15 250 50 0 empty empty empty 17 7 0 10 -262144
-1 -1;
#X msg 826 229 \$1 \$2;
#X obj 826 209 pack f f;
#X obj 871 189 r sp;
#X msg 916 229 \$1 \$2;
#X obj 916 209 pack f f;
#X obj 961 189 r sp;
#X msg 1006 229 \$1 \$2;
#X obj 1006 209 pack f f;
#X obj 1051 189 r sp;
#X obj 826 251 line;
#X obj 916 251 line;
#X obj 1006 251 line;
#X floatatom 79 271 5 0 0 0 - - -;
#X obj 364 44 gemwin;
#X obj 630 287 rectangle 4 3;
#X msg 372 95 0 \, destroy;
#X obj 630 259 scaleXYZ 3 3 3;
#X obj 500 150 tgl 15 0 empty empty empty 0 -6 0 10 -262144 -1 -1 0
1;
#X msg 500 169 topmost \$1;
#X msg 364 21 reset \, offset 1920 0 \, border 0 \, dimen 1200 800
\, create \, 1;
#X floatatom 30 169 5 0 0 0 - - -;
#X msg 341 84 create \, 1;
#X obj 264 561 - 1;
#X obj 425 690 +~;
#X msg 304 491 400;
#X connect 0 1 4 0;
#X connect 0 2 52 0;
#X connect 1 0 0 1;
#X connect 1 1 30 0;
#X connect 1 1 128 0;
#X connect 1 2 31 0;
#X connect 1 2 120 0;
#X connect 2 0 1 0;
#X connect 3 0 2 0;
#X connect 4 0 27 0;
#X connect 4 1 28 0;
#X connect 4 2 29 0;
#X connect 5 0 6 0;
#X connect 6 0 124 0;
#X connect 8 0 9 0;
#X connect 9 0 8 0;
#X connect 11 0 0 2;
#X connect 12 0 0 3;
#X connect 13 0 14 0;
#X connect 14 0 66 0;
#X connect 15 0 16 0;
#X connect 15 0 17 0;
#X connect 16 0 15 1;
#X connect 17 0 23 0;
#X connect 18 0 21 0;
#X connect 18 0 26 0;
#X connect 19 0 20 0;
#X connect 20 0 14 1;
#X connect 20 0 68 0;
#X connect 21 0 24 0;
#X connect 21 0 93 0;
#X connect 22 0 33 0;
#X connect 23 0 18 0;
#X connect 24 0 25 0;
#X connect 24 0 130 0;
#X connect 25 0 22 0;
#X connect 26 0 35 0;
#X connect 32 0 26 1;
#X connect 33 0 36 0;
#X connect 34 0 33 1;
#X connect 37 0 11 0;
#X connect 38 0 12 0;
#X connect 39 0 21 1;
#X connect 40 0 6 1;
#X connect 40 0 88 0;
#X connect 41 0 17 1;
#X connect 42 0 25 1;
#X connect 43 0 57 0;
#X connect 44 0 58 0;
#X connect 45 0 59 0;
#X connect 46 0 100 1;
#X connect 48 0 131 0;
#X connect 50 0 49 0;
#X connect 51 0 49 0;
#X connect 53 0 100 0;
#X connect 54 0 48 0;
#X connect 55 0 60 0;
#X connect 56 0 61 0;
#X connect 57 0 54 0;
#X connect 58 0 55 0;
#X connect 59 0 56 0;
#X connect 60 0 131 1;
#X connect 61 0 53 1;
#X connect 61 0 53 1;
#X connect 61 0 53 1;
#X connect 62 0 57 1;
#X connect 63 0 49 0;
#X connect 64 0 58 1;
#X connect 65 0 59 1;
#X connect 67 0 0 0;
#X connect 69 0 15 0;
#X connect 70 0 6 2;
#X connect 70 0 89 0;
#X connect 71 0 6 3;
#X connect 71 0 90 0;
#X connect 72 0 75 0;
#X connect 73 0 72 0;
#X connect 74 0 73 1;
#X connect 75 0 48 0;
#X connect 76 0 79 0;
#X connect 77 0 76 0;
#X connect 78 0 77 1;
#X connect 79 0 60 0;
#X connect 80 0 83 0;
#X connect 81 0 80 0;
#X connect 82 0 81 1;
#X connect 83 0 61 0;
#X connect 84 0 85 0;
#X connect 84 0 106 0;
#X connect 85 0 2 0;
#X connect 86 0 84 0;
#X connect 87 0 99 0;
#X connect 91 0 99 0;
#X connect 92 0 95 1;
#X connect 94 0 92 0;
#X connect 95 0 99 0;
#X connect 96 0 95 0;
#X connect 99 0 62 0;
#X connect 99 0 64 0;
#X connect 99 0 65 0;
#X connect 99 0 101 0;
#X connect 100 0 47 0;
#X connect 100 0 47 1;
#X connect 100 0 49 0;
#X connect 100 0 49 1;
#X connect 102 0 99 0;
#X connect 103 0 99 0;
#X connect 104 0 105 1;
#X connect 105 0 24 0;
#X connect 106 0 107 0;
#X connect 107 0 105 0;
#X connect 108 0 117 0;
#X connect 109 0 108 0;
#X connect 110 0 109 1;
#X connect 111 0 118 0;
#X connect 112 0 111 0;
#X connect 113 0 112 1;
#X connect 114 0 119 0;
#X connect 115 0 114 0;
#X connect 116 0 115 1;
#X connect 123 0 121 0;
#X connect 124 0 122 0;
#X connect 125 0 126 0;
#X connect 126 0 121 0;
#X connect 127 0 121 0;
#X connect 129 0 121 0;
#X connect 130 0 24 1;
#X connect 131 0 53 0;
#X connect 132 0 105 0;
