#N canvas 57 59 931 998 10;
#X declare -path /home/hellocatfood/pd-externals/hellocatfood;
#X obj 124 415 pix_data;
#X obj 139 215 pix_info . . .;
#X obj 139 155 pix_image;
#X obj 139 5 gemhead;
#X obj 146 445 unpack f f f;
#X obj 630 67 gemhead;
#X floatatom 154 345 5 0 0 0 - - -;
#X floatatom 169 385 5 0 0 0 - - -;
#X obj 264 157 tgl 30 0 empty empty empty 17 7 0 10 -4034 -1 -1 1 1
;
#X obj 124 561 f;
#X obj 164 561 + 1;
#X obj 124 633 %;
#X floatatom 124 685 5 0 0 0 - - -;
#X floatatom 291 239 5 0 0 0 - - -;
#X floatatom 224 685 5 0 0 0 - - -;
#X obj 224 561 f;
#X obj 224 633 %;
#X obj 124 855 /;
#X obj 146 467 s r;
#X obj 180 467 s g;
#X obj 215 467 s b;
#X obj 150 235 s w;
#X obj 162 255 s h;
#X obj 139 835 r w;
#X obj 224 855 /;
#X obj 239 835 r h;
#X obj 124 877 s x;
#X obj 224 877 s y;
#X obj 154 325 r x;
#X obj 169 365 r y;
#X obj 641 107 r r;
#X obj 139 603 r w;
#X obj 239 603 r h;
#X obj 426 558 r r;
#X obj 566 558 r g;
#X obj 706 558 r b;
#X obj 482 777 hsl 128 15 0 1 0 0 empty empty empty -2 -8 0 10 -262144
-1 -1 0 1;
#X obj 426 838 dac~;
#X obj 426 578 * 100;
#X obj 566 578 * 100;
#X obj 706 578 * 100;
#X obj 264 281 s bang;
#X obj 124 295 r bang;
#X obj 124 511 r bang;
#X obj 652 147 r g;
#X obj 663 187 r b;
#X obj 159 85 openpanel;
#X msg 159 105 open \$1;
#X obj 159 65 bng 15 250 50 0 empty empty empty 17 7 0 10 -262144 -1
-1;
#X obj 641 127 nbx 5 14 -1e+37 1e+37 0 0 empty empty empty 0 -8 0 10
-258113 -1 -1 0.576471 256;
#X obj 652 167 nbx 5 14 -1e+37 1e+37 0 0 empty empty empty 0 -8 0 10
-4034 -1 -1 0.388235 256;
#X obj 663 207 nbx 5 14 -1e+37 1e+37 0 0 empty empty empty 0 -8 0 10
-4032 -1 -1 0.247059 256;
#X text 258 685 current vertical line;
#X obj 264 34 gemwin;
#X obj 154 747 sel 0;
#X obj 264 561 + 1;
#X text 178 234 width;
#X text 190 254 height;
#X obj 264 259 metro;
#X obj 291 201 knob 32 32 50 0.001 0 0 empty empty empty 0 -8 0 8 -262144
-1 -1 3097 1;
#X obj 453 540 knob 32 32 0 2000 0 0 empty empty empty 0 -8 0 8 -262144
-1 -1 1184 1;
#X obj 593 540 knob 32 32 0 2000 0 0 empty empty empty 0 -8 0 8 -262144
-1 -1 1184 1;
#X obj 733 540 knob 32 32 0 2000 0 0 empty empty empty 0 -8 0 8 -262144
-1 -1 1184 1;
#X obj 453 410 knob 50 50 0 2000 0 0 empty empty empty 0 -8 0 8 -262144
-1 -1 1871 1;
#X obj 886 137 separator;
#X obj 886 301 text3d;
#X floatatom 910 161 5 0 0 0 - - -;
#X floatatom 954 159 5 0 0 0 - - -;
#X obj 886 231 colorRGB 0 0 0;
#X msg 1516 201 justify left base;
#X obj 1516 161 loadbang;
#X msg 976 271 text Red: \$1;
#X obj 466 600 mtof;
#X obj 606 600 mtof;
#X obj 746 600 mtof;
#X obj 1106 301 text3d;
#X floatatom 1130 161 5 0 0 0 - - -;
#X floatatom 1174 159 5 0 0 0 - - -;
#X obj 1106 231 colorRGB 0 0 0;
#X obj 1106 137 separator;
#X obj 1106 211 scaleXYZ 0.4 0.4 0.4;
#X obj 886 211 scaleXYZ 0.4 0.4 0.4;
#X msg 1196 271 text Green: \$1;
#X obj 886 189 translateXYZ -6 3 0;
#X obj 1106 189 translateXYZ -6 2.5 0;
#X obj 1316 301 text3d;
#X floatatom 1340 161 5 0 0 0 - - -;
#X floatatom 1384 159 5 0 0 0 - - -;
#X obj 1316 231 colorRGB 0 0 0;
#X obj 1316 137 separator;
#X obj 1316 211 scaleXYZ 0.4 0.4 0.4;
#X obj 1316 189 translateXYZ -6 2 0;
#X msg 1406 271 text Blue: \$1;
#X obj 886 427 separator;
#X obj 886 591 text3d;
#X floatatom 910 451 5 0 0 0 - - -;
#X floatatom 954 449 5 0 0 0 - - -;
#X obj 886 521 colorRGB 0 0 0;
#X obj 1106 591 text3d;
#X floatatom 1130 451 5 0 0 0 - - -;
#X floatatom 1174 449 5 0 0 0 - - -;
#X obj 1106 521 colorRGB 0 0 0;
#X obj 1106 427 separator;
#X obj 1106 501 scaleXYZ 0.4 0.4 0.4;
#X obj 886 501 scaleXYZ 0.4 0.4 0.4;
#X msg 976 561 text X: \$1;
#X msg 1196 561 text Y: \$1;
#X obj 886 479 translateXYZ -6 1.3 0;
#X obj 1106 479 translateXYZ -6 0.8 0;
#X obj 886 707 separator;
#X obj 886 871 text3d;
#X floatatom 910 731 5 0 0 0 - - -;
#X floatatom 954 729 5 0 0 0 - - -;
#X obj 886 801 colorRGB 0 0 0;
#X obj 886 781 scaleXYZ 0.4 0.4 0.4;
#X msg 976 841 text Scale: x \$1;
#X obj 886 759 translateXYZ -6 0 0;
#X obj 1106 707 separator;
#X obj 1106 871 text3d;
#X floatatom 1130 731 5 0 0 0 - - -;
#X floatatom 1174 729 5 0 0 0 - - -;
#X obj 1106 801 colorRGB 0 0 0;
#X obj 1106 781 scaleXYZ 0.4 0.4 0.4;
#X msg 1196 841 text Speed: \$1;
#X obj 1106 759 translateXYZ -6 -0.5 0;
#X obj 886 65 translateXYZ;
#X obj 886 35 gemhead 4000;
#X obj 331 139 path /home/hellocatfood/pd-externals/hellocatfood;
#X msg 314 41 reset \, dimen 1680 1050 \, create \, 1;
#X msg 641 257 color \$1 \$2 \$3;
#X obj 641 237 pack f f f;
#X msg 264 11 offset 1920 0 \, border 0 \, dimen 1680 1050 \, create
\, 1;
#X msg 281 86 0 \, destroy;
#X obj 1516 223 t a;
#X msg 1526 181 font VT323.ttf;
#X msg 1578 154;
#X msg 1520 126 font Arial.ttf;
#X msg 224 541 0;
#X obj 159 127 t a b b;
#X msg 124 541 0;
#X obj 431 253 gemmouse;
#X obj 748 402 key;
#X floatatom 748 424 5 0 0 0 - - -;
#X msg 614 6 dimen 1920 1080 \, border 0 \, create \, 1;
#X obj 467 56 loadbang;
#X msg 467 78 color 1 1 1;
#X msg 574 70 create \, 1;
#X floatatom 431 275 5 0 0 0 - - -;
#X floatatom 431 317 5 0 0 0 - - -;
#X floatatom 481 325 5 0 0 0 - - -;
#X floatatom 481 367 5 0 0 0 - - -;
#X obj 481 345 maxlib/scale 0 1080 50 0.001 0;
#X obj 282 399 gemkeyboard;
#X floatatom 315 444 5 0 0 0 - - -;
#X obj 264 134 sel 39;
#X msg 733 319 \; pd dsp 1;
#X obj 730 293 loadbang;
#X symbolatom 372 883 30 0 0 0 - - -;
#X floatatom 297 498 5 0 0 0 - - -;
#X floatatom 52 269 5 0 0 0 - - -;
#X floatatom 199 282 5 0 0 0 - - -;
#X msg 191 522 0;
#X floatatom 405 491 5 0 0 0 - - -;
#X floatatom 386 586 5 0 0 0 - - -;
#X floatatom 476 577 5 0 0 0 - - -;
#X obj 431 295 maxlib/scale 0 1920 0 2000 0;
#X obj 1468 448 /;
#X obj 1443 513 rectangle;
#X obj 1468 471 t b f;
#X msg 1468 493 1;
#X obj 1303 394 pix_texture;
#X msg 740 61;
#X floatatom 1533 535 5 0 0 0 - - -;
#X obj 1605 429 r w;
#X obj 1468 359 r h;
#X obj 1303 415 scaleXYZ 0.8 0.8 0;
#X obj 1305 449 translateXYZ -6.4 -2.6 0;
#X obj 1527 296 alternate;
#X obj 1546 269 bng 15 250 50 0 empty empty empty 17 7 0 10 -262144
-1 -1;
#X floatatom 1534 480 5 0 0 0 - - -;
#X obj 426 796 *~ 0.2;
#X obj 425 690 +~;
#X floatatom 529 602 5 0 0 0 - - -;
#X floatatom 670 591 5 0 0 0 - - -;
#X obj 425 714 *~;
#X obj 566 630 osc~;
#X obj 706 630 osc~;
#X obj 426 630 osc~;
#X connect 0 1 4 0;
#X connect 1 0 0 1;
#X connect 1 1 21 0;
#X connect 1 1 159 0;
#X connect 1 2 22 0;
#X connect 1 2 160 0;
#X connect 2 0 1 0;
#X connect 2 0 170 0;
#X connect 3 0 2 0;
#X connect 4 0 18 0;
#X connect 4 1 19 0;
#X connect 4 2 20 0;
#X connect 6 0 0 2;
#X connect 7 0 0 3;
#X connect 8 0 58 0;
#X connect 9 0 10 0;
#X connect 9 0 11 0;
#X connect 10 0 9 1;
#X connect 11 0 12 0;
#X connect 11 0 54 0;
#X connect 12 0 17 0;
#X connect 12 0 105 0;
#X connect 13 0 58 1;
#X connect 13 0 123 0;
#X connect 14 0 24 0;
#X connect 14 0 106 0;
#X connect 15 0 16 0;
#X connect 15 0 55 0;
#X connect 16 0 14 0;
#X connect 17 0 26 0;
#X connect 23 0 17 1;
#X connect 24 0 27 0;
#X connect 25 0 24 1;
#X connect 28 0 6 0;
#X connect 29 0 7 0;
#X connect 30 0 49 0;
#X connect 31 0 11 1;
#X connect 32 0 16 1;
#X connect 33 0 38 0;
#X connect 34 0 39 0;
#X connect 35 0 40 0;
#X connect 36 0 180 1;
#X connect 38 0 163 0;
#X connect 38 0 187 0;
#X connect 39 0 182 0;
#X connect 39 0 185 0;
#X connect 40 0 183 0;
#X connect 40 0 186 0;
#X connect 42 0 0 0;
#X connect 43 0 9 0;
#X connect 44 0 50 0;
#X connect 45 0 51 0;
#X connect 46 0 47 0;
#X connect 46 0 157 0;
#X connect 47 0 138 0;
#X connect 48 0 46 0;
#X connect 49 0 71 0;
#X connect 49 0 130 0;
#X connect 50 0 82 0;
#X connect 50 0 130 1;
#X connect 51 0 92 0;
#X connect 51 0 130 2;
#X connect 54 0 15 0;
#X connect 55 0 15 1;
#X connect 58 0 41 0;
#X connect 59 0 13 0;
#X connect 60 0 38 1;
#X connect 60 0 164 0;
#X connect 61 0 39 1;
#X connect 62 0 40 1;
#X connect 63 0 60 0;
#X connect 63 0 61 0;
#X connect 63 0 62 0;
#X connect 63 0 115 0;
#X connect 63 0 162 0;
#X connect 64 0 83 0;
#X connect 66 0 83 1;
#X connect 67 0 83 2;
#X connect 68 0 65 0;
#X connect 69 0 133 0;
#X connect 70 0 69 0;
#X connect 70 0 134 0;
#X connect 71 0 65 0;
#X connect 76 0 84 1;
#X connect 77 0 84 2;
#X connect 78 0 75 0;
#X connect 79 0 84 0;
#X connect 80 0 78 0;
#X connect 81 0 68 0;
#X connect 82 0 75 0;
#X connect 83 0 81 0;
#X connect 84 0 80 0;
#X connect 86 0 91 1;
#X connect 87 0 91 2;
#X connect 88 0 85 0;
#X connect 89 0 91 0;
#X connect 90 0 88 0;
#X connect 91 0 90 0;
#X connect 92 0 85 0;
#X connect 93 0 107 0;
#X connect 95 0 107 1;
#X connect 96 0 107 2;
#X connect 97 0 94 0;
#X connect 99 0 108 1;
#X connect 100 0 108 2;
#X connect 101 0 98 0;
#X connect 102 0 108 0;
#X connect 103 0 101 0;
#X connect 104 0 97 0;
#X connect 105 0 94 0;
#X connect 106 0 98 0;
#X connect 107 0 104 0;
#X connect 108 0 103 0;
#X connect 109 0 116 0;
#X connect 111 0 116 1;
#X connect 112 0 116 2;
#X connect 113 0 110 0;
#X connect 114 0 113 0;
#X connect 115 0 110 0;
#X connect 116 0 114 0;
#X connect 117 0 124 0;
#X connect 119 0 124 1;
#X connect 120 0 124 2;
#X connect 121 0 118 0;
#X connect 122 0 121 0;
#X connect 123 0 118 0;
#X connect 124 0 122 0;
#X connect 125 0 64 0;
#X connect 125 0 79 0;
#X connect 125 0 89 0;
#X connect 125 0 93 0;
#X connect 125 0 102 0;
#X connect 125 0 109 0;
#X connect 125 0 117 0;
#X connect 126 0 125 0;
#X connect 128 0 53 0;
#X connect 129 0 53 0;
#X connect 130 0 129 0;
#X connect 131 0 53 0;
#X connect 132 0 53 0;
#X connect 133 0 65 0;
#X connect 133 0 75 0;
#X connect 133 0 85 0;
#X connect 133 0 94 0;
#X connect 133 0 98 0;
#X connect 133 0 110 0;
#X connect 133 0 118 0;
#X connect 134 0 133 0;
#X connect 136 0 133 0;
#X connect 137 0 15 0;
#X connect 138 0 2 0;
#X connect 138 1 137 0;
#X connect 138 2 139 0;
#X connect 139 0 9 0;
#X connect 140 0 147 0;
#X connect 140 1 149 0;
#X connect 140 4 132 0;
#X connect 141 0 142 0;
#X connect 143 0 53 0;
#X connect 144 0 145 0;
#X connect 145 0 53 0;
#X connect 146 0 53 0;
#X connect 147 0 165 0;
#X connect 148 0 63 0;
#X connect 149 0 151 0;
#X connect 150 0 59 0;
#X connect 151 0 150 0;
#X connect 152 0 153 0;
#X connect 152 0 154 0;
#X connect 154 0 8 0;
#X connect 156 0 155 0;
#X connect 158 0 15 0;
#X connect 164 0 39 1;
#X connect 164 0 40 1;
#X connect 165 0 148 0;
#X connect 166 0 168 0;
#X connect 166 0 179 0;
#X connect 168 0 169 0;
#X connect 168 1 167 2;
#X connect 168 1 172 0;
#X connect 169 0 167 1;
#X connect 170 0 175 0;
#X connect 173 0 166 1;
#X connect 174 0 166 0;
#X connect 175 0 176 0;
#X connect 176 0 167 0;
#X connect 178 0 177 0;
#X connect 180 0 37 0;
#X connect 180 0 37 1;
#X connect 181 0 184 0;
#X connect 184 0 180 0;
#X connect 185 0 181 1;
#X connect 186 0 184 1;
#X connect 187 0 181 0;
