#N canvas 435 471 430 366 10;
#X obj 23 291 cnv 15 165 55 empty empty empty 20 12 0 14 -257985 -66577
0;
#X text 32 316 http://hellocatfood.com;
#N canvas 291 162 931 998 loadimage 0;
#X obj 200 40 cnv 15 150 100 empty empty empty 20 12 0 14 -204786 -66577
0;
#X obj 32 415 pix_data;
#X obj 47 215 pix_info . . .;
#X obj 47 195 pix_image;
#X obj 47 5 gemhead;
#X obj 54 445 unpack f f f;
#X floatatom 62 345 5 0 0 0 - - -;
#X floatatom 77 385 5 0 0 0 - - -;
#X obj 54 467 s r;
#X obj 88 467 s g;
#X obj 123 467 s b;
#X obj 58 235 s w;
#X obj 70 255 s h;
#X obj 62 325 r x;
#X obj 77 365 r y;
#X obj 32 295 r bang;
#X obj 67 85 openpanel;
#X msg 67 105 open \$1;
#X obj 207 45 bng 30 250 50 0 empty empty empty 17 7 0 10 -258113 -1
-1;
#X text 86 234 width;
#X text 98 254 height;
#X text 245 50 open image;
#X obj 67 127 t a b;
#X floatatom 207 85 8 0 0 0 - - -;
#X floatatom 207 115 8 0 0 0 - - -;
#X text 262 84 width;
#X text 262 114 height;
#X obj 94 147 s initbang;
#X connect 1 1 5 0;
#X connect 2 0 1 1;
#X connect 2 1 11 0;
#X connect 2 1 23 0;
#X connect 2 2 12 0;
#X connect 2 2 24 0;
#X connect 3 0 2 0;
#X connect 4 0 3 0;
#X connect 5 0 8 0;
#X connect 5 1 9 0;
#X connect 5 2 10 0;
#X connect 6 0 1 2;
#X connect 7 0 1 3;
#X connect 13 0 6 0;
#X connect 14 0 7 0;
#X connect 15 0 1 0;
#X connect 16 0 17 0;
#X connect 17 0 22 0;
#X connect 18 0 16 0;
#X connect 22 0 3 0;
#X connect 22 1 27 0;
#X coords 0 -1 1 1 150 100 1 200 40;
#X restore 24 16 pd loadimage;
#N canvas 57 82 931 998 pixelinfo 0;
#X obj 29 112 f;
#X obj 69 112 + 1;
#X obj 29 184 %;
#X floatatom 29 226 5 0 0 0 - - -;
#X floatatom 129 266 5 0 0 0 - - -;
#X obj 129 112 f;
#X obj 129 184 %;
#X obj 29 366 /;
#X obj 44 346 r w;
#X obj 129 366 /;
#X obj 144 346 r h;
#X obj 29 388 s x;
#X obj 129 388 s y;
#X obj 44 154 r w;
#X obj 144 154 r h;
#X obj 29 62 r bang;
#X obj 59 308 sel 0;
#X obj 169 112 + 1;
#X msg 129 92 0;
#X msg 29 92 0;
#X text 163 266 curren line;
#X text 63 226 curren column;
#X obj 129 32 t b b;
#X obj 129 12 r initbang;
#X obj 309 12 r r;
#X obj 337 52 r g;
#X obj 366 92 r b;
#X msg 309 162 color \$1 \$2 \$3;
#X obj 309 142 pack f f f;
#X obj 309 184 s pixelcolor;
#X obj 400 300 cnv 15 150 130 empty empty empty 20 12 0 14 -262130
-66577 0;
#X floatatom 409 306 5 0 0 0 - - -;
#X obj 409 366 nbx 5 14 -1e+37 1e+37 0 0 empty empty empty 0 -8 0 10
-258113 -1 -1 0 256;
#X obj 409 386 nbx 5 14 -1e+37 1e+37 0 0 empty empty empty 0 -8 0 10
-4034 -1 -1 0 256;
#X obj 409 406 nbx 5 14 -1e+37 1e+37 0 0 empty empty empty 0 -8 0 10
-4032 -1 -1 0 256;
#X floatatom 409 336 5 0 0 0 - - -;
#X text 467 364 red value;
#X text 467 384 green value;
#X text 467 404 blue value;
#X text 443 336 current line;
#X text 443 306 current column;
#X connect 0 0 1 0;
#X connect 0 0 2 0;
#X connect 1 0 0 1;
#X connect 2 0 3 0;
#X connect 2 0 16 0;
#X connect 3 0 7 0;
#X connect 3 0 31 0;
#X connect 4 0 9 0;
#X connect 4 0 35 0;
#X connect 5 0 6 0;
#X connect 5 0 17 0;
#X connect 6 0 4 0;
#X connect 7 0 11 0;
#X connect 8 0 7 1;
#X connect 9 0 12 0;
#X connect 10 0 9 1;
#X connect 13 0 2 1;
#X connect 14 0 6 1;
#X connect 15 0 0 0;
#X connect 16 0 5 0;
#X connect 17 0 5 1;
#X connect 18 0 5 0;
#X connect 19 0 0 0;
#X connect 22 0 18 0;
#X connect 22 1 19 0;
#X connect 23 0 22 0;
#X connect 24 0 28 0;
#X connect 24 0 32 0;
#X connect 25 0 28 1;
#X connect 25 0 33 0;
#X connect 26 0 28 2;
#X connect 26 0 34 0;
#X connect 27 0 29 0;
#X connect 28 0 27 0;
#X coords 0 -1 1 1 150 130 1 400 300;
#X restore 22 139 pd pixelinfo;
#N canvas 1085 294 450 300 start 0;
#X obj 150 20 cnv 15 120 90 empty empty empty 20 12 0 14 -260097 -66577
0;
#X obj 156 27 tgl 30 0 empty empty empty 17 7 0 10 -4034 -1 -1 0 1
;
#X floatatom 43 107 5 0 0 0 - - -;
#X obj 16 149 s bang;
#X obj 16 127 metro;
#X obj 156 69 knob 32 32 50 0.001 0 0 empty empty empty 0 -8 0 8 -262144
-262144 -1 0 1;
#X msg 16 199 \; pd dsp 1;
#X obj 16 179 loadbang;
#X text 194 32 start;
#X text 197 72 speed;
#X connect 1 0 4 0;
#X connect 2 0 4 1;
#X connect 4 0 3 0;
#X connect 5 0 2 0;
#X connect 7 0 6 0;
#X coords 0 -1 1 1 120 90 1 150 20;
#X restore 294 16 pd start;
#N canvas 997 457 450 300 audio 0;
#X obj 280 10 cnv 15 150 220 empty empty empty 20 12 0 14 -261682 -66577
0;
#X obj 31 116 r r;
#X obj 91 116 r g;
#X obj 151 116 r b;
#X obj 31 284 dac~;
#X obj 31 166 osc~;
#X obj 31 136 * 100;
#X obj 91 136 * 100;
#X obj 151 136 * 100;
#X obj 91 166 osc~;
#X obj 151 166 osc~;
#X obj 31 242 *~ 0.1;
#X obj 30 196 +~;
#X obj 288 88 knob 32 32 0 2000 0 0 empty empty empty 0 -8 0 8 -262144
-258113 -1 0 1;
#X obj 288 138 knob 32 32 0 2000 0 0 empty empty empty 0 -8 0 8 -262144
-4034 -1 0 1;
#X obj 288 188 knob 32 32 0 2000 0 0 empty empty empty 0 -8 0 8 -262144
-4160 -1 0 1;
#X obj 288 18 knob 50 50 0 2000 0 0 empty empty empty 0 -8 0 8 -262144
-1 -1 0 1;
#X text 349 30 scale audio;
#X obj 29 220 +~;
#X text 327 93 red;
#X text 327 143 green;
#X text 327 193 blue;
#X connect 1 0 6 0;
#X connect 2 0 7 0;
#X connect 3 0 8 0;
#X connect 5 0 12 0;
#X connect 6 0 5 0;
#X connect 7 0 9 0;
#X connect 8 0 10 0;
#X connect 9 0 12 1;
#X connect 10 0 18 1;
#X connect 10 0 18 1;
#X connect 10 0 18 1;
#X connect 11 0 4 0;
#X connect 11 0 4 1;
#X connect 12 0 18 0;
#X connect 13 0 6 1;
#X connect 14 0 7 1;
#X connect 15 0 8 1;
#X connect 16 0 13 0;
#X connect 16 0 14 0;
#X connect 16 0 15 0;
#X connect 18 0 11 0;
#X coords 0 -1 1 1 150 220 1 280 10;
#X restore 264 126 pd audio;
#X obj 183 16 cnv 15 100 60 empty empty empty 20 12 0 14 -228856 -66577
0;
#N canvas 57 82 450 300 gemwin 0;
#X obj 132 136 gemwin;
#X obj 67 89 outlet;
#X obj 67 10 inlet;
#X obj 67 41 route create;
#X msg 67 70 set destroy;
#X msg 142 68 set create;
#X msg 132 112 create \, 1;
#X msg 198 112 destroy;
#X obj 251 112 r pixelcolor;
#X connect 2 0 3 0;
#X connect 3 0 4 0;
#X connect 3 0 6 0;
#X connect 3 1 5 0;
#X connect 3 1 7 0;
#X connect 4 0 1 0;
#X connect 5 0 1 0;
#X connect 6 0 0 0;
#X connect 7 0 0 0;
#X connect 8 0 0 0;
#X restore 188 55 pd gemwin;
#X msg 188 36 destroy;
#X text 184 15 create window;
#X text 32 297 antonio roberts 2014;
#X connect 7 0 8 0;
#X connect 8 0 7 0;
