#N canvas 969 82 929 997 10;
#X obj 124 355 pix_data;
#X obj 139 125 pix_info . . .;
#X obj 139 65 pix_image;
#X obj 139 5 gemhead;
#X obj 146 385 unpack f f f;
#X obj 630 35 gemhead;
#X obj 630 237 colorRGB;
#X obj 470 53 cnv 15 100 60 empty empty empty 20 12 0 14 -195568 -66577
0;
#N canvas 58 87 450 300 gemwin 0;
#X obj 132 136 gemwin;
#X obj 67 89 outlet;
#X obj 67 10 inlet;
#X obj 67 41 route create;
#X msg 67 70 set destroy;
#X msg 142 68 set create;
#X msg 198 112 destroy;
#X msg 132 112 create \, 1;
#X connect 2 0 3 0;
#X connect 3 0 4 0;
#X connect 3 0 7 0;
#X connect 3 1 5 0;
#X connect 3 1 6 0;
#X connect 4 0 1 0;
#X connect 5 0 1 0;
#X connect 6 0 0 0;
#X connect 7 0 0 0;
#X restore 475 92 pd gemwin;
#X msg 475 73 destroy;
#X text 471 52 Create window:;
#X floatatom 154 265 5 0 0 0 - - -;
#X floatatom 169 305 5 0 0 0 - - -;
#X obj 264 237 tgl 15 0 empty empty empty 17 7 0 10 -262144 -1 -1 1
1;
#X obj 264 259 metro 100;
#X obj 124 561 f;
#X obj 164 561 + 1;
#X obj 124 633 %;
#X floatatom 124 685 5 0 0 0 - - -;
#X obj 319 196 hsl 128 15 3000 0.001 0 0 empty empty empty -2 -8 0
10 -262144 -1 -1 0 1;
#X floatatom 316 216 5 0 0 0 - - -;
#X floatatom 224 685 5 0 0 0 - - -;
#X obj 224 561 f;
#X obj 224 633 %;
#X obj 124 855 /;
#X obj 146 407 s r;
#X obj 180 407 s g;
#X obj 215 407 s b;
#X obj 150 145 s w;
#X obj 162 165 s h;
#X obj 139 835 r w;
#X obj 224 855 /;
#X obj 239 835 r h;
#X obj 124 877 s x;
#X obj 224 877 s y;
#X obj 154 245 r x;
#X obj 169 285 r y;
#X obj 646 69 r r;
#X obj 139 603 r w;
#X obj 239 603 r h;
#X obj 426 458 r r;
#X obj 566 458 r g;
#X obj 706 458 r b;
#X obj 482 717 hsl 128 15 0 1 0 0 empty empty empty -2 -8 0 10 -262144
-1 -1 0 1;
#X obj 426 838 dac~;
#X obj 426 660 osc~;
#X obj 487 931 writesf~ 2;
#X msg 578 861 start;
#X msg 587 882 stop;
#X obj 425 714 +~;
#X obj 426 500 mtof;
#X obj 566 500 mtof;
#X obj 706 500 mtof;
#X obj 426 478 * 100;
#X obj 566 478 * 100;
#X obj 706 478 * 100;
#X obj 566 660 osc~;
#X obj 706 660 osc~;
#X obj 456 377 hsl 128 15 0 300 0 0 empty empty empty -2 -8 0 10 -262144
-1 -1 0 1;
#X msg 561 816 open 5.wav;
#X obj 596 410 hsl 128 15 0 300 0 0 empty empty empty -2 -8 0 10 -262144
-1 -1 0 1;
#X obj 736 438 hsl 128 15 0 300 0 0 empty empty empty -2 -8 0 10 -262144
-1 -1 0 1;
#X obj 264 281 s bang;
#X obj 124 331 r bang;
#X obj 336 247 s sp;
#X obj 124 541 r bang;
#X obj 736 69 r g;
#X obj 826 69 r b;
#X msg 446 608 \$1 \$2;
#X obj 446 588 pack f f;
#X obj 491 568 r sp;
#X obj 446 630 line;
#X msg 586 608 \$1 \$2;
#X obj 586 588 pack f f;
#X obj 631 568 r sp;
#X obj 586 630 line;
#X msg 746 608 \$1 \$2;
#X obj 746 588 pack f f;
#X obj 791 568 r sp;
#X obj 746 636 line;
#X obj 247 72 openpanel;
#X msg 247 92 open \$1;
#X obj 247 52 bng 15 250 50 0 empty empty empty 17 7 0 10 -262144 -1
-1;
#X msg 453 333 100;
#X obj 646 161 nbx 5 14 -1e+37 1e+37 0 0 empty empty empty 0 -8 0 10
-261234 -1 -1 1 256;
#X obj 736 161 nbx 5 14 -1e+37 1e+37 0 0 empty empty empty 0 -8 0 10
-4034 -1 -1 0.964706 256;
#X obj 825 161 nbx 5 14 -1e+37 1e+37 0 0 empty empty empty 0 -8 0 10
-4032 -1 -1 0 256;
#X msg 493 333 200;
#X obj 553 311 random 300;
#X obj 154 767 s newline;
#X obj 553 291 r newline;
#X obj 532 333 gate;
#X obj 532 311 tgl 15 0 empty empty empty 17 7 0 10 -4034 -1 -1 0 1
;
#X text 258 685 current vertical line;
#X obj 736 340 hsl 128 15 0 300 0 0 empty empty empty -2 -8 0 10 -257985
-1 -1 0 1;
#X obj 426 736 *~ 0.1;
#X floatatom 811 373 5 0 0 0 - - -;
#X msg 804 299 128;
#X msg 761 289 111;
#X symbolatom 247 139 50 0 0 0 - - -;
#X floatatom 163 215 5 0 0 0 - - -;
#X obj 364 44 gemwin;
#X obj 630 287 rectangle 4 3;
#X msg 372 95 0 \, destroy;
#X obj 630 259 scaleXYZ 3 3 3;
#X obj 500 150 tgl 15 0 empty empty empty 0 -6 0 10 -262144 -1 -1 0
1;
#X msg 500 169 topmost \$1;
#X msg 364 21 reset \, offset 1920 0 \, border 0 \, dimen 1200 800
\, create \, 1;
#X floatatom 151 193 5 0 0 0 - - -;
#X msg 341 84 create \, 1;
#X obj 425 690 +~;
#X obj 1133 611 scaleXYZ;
#X obj 1133 853 text3d;
#X msg 1151 745 text \$1;
#X msg 1192 708 font Arial.ttf;
#X obj 1133 683 color;
#X obj 1193 680 loadbang;
#X msg 1158 643 0 \$1 0;
#X obj 1086 735 separator;
#X obj 1064 852 scaleXYZ;
#X obj 1086 757 alpha;
#X obj 1064 914 color;
#X obj 1066 807 repeat 5;
#X msg 1155 833 justify left base;
#X obj 1180 803 loadbang;
#X obj 1073 161 scaleXYZ;
#X obj 1073 403 text3d;
#X msg 1091 295 text \$1;
#X msg 1132 258 font Arial.ttf;
#X obj 1073 233 color;
#X obj 1133 230 loadbang;
#X obj 1026 285 separator;
#X obj 1004 402 scaleXYZ;
#X obj 1026 307 alpha;
#X obj 1004 464 color;
#X obj 1006 357 repeat 5;
#X msg 1095 383 justify left base;
#X obj 1120 353 loadbang;
#X msg 1098 193 0 0 \$1;
#X obj 1073 139 translateXYZ -3.63 -2.66 0;
#X obj 888 581 scaleXYZ;
#X obj 888 823 text3d;
#X msg 906 715 text \$1;
#X msg 947 678 font Arial.ttf;
#X obj 888 653 color;
#X obj 948 650 loadbang;
#X obj 841 705 separator;
#X obj 819 822 scaleXYZ;
#X obj 841 727 alpha;
#X obj 819 884 color;
#X obj 821 777 repeat 5;
#X msg 910 803 justify left base;
#X obj 935 773 loadbang;
#X msg 913 613 \$1 0 0;
#X obj 888 559 translateXYZ -3.63 2.6 0;
#X obj 798 531 scaleXYZ;
#X obj 798 509 translateXYZ -3.63 2.6 0;
#X obj 798 487 gemhead 1000;
#X obj 1013 631 scaleXYZ;
#X obj 1013 609 translateXYZ -3.63 0 0;
#X obj 1013 587 gemhead 1100;
#X obj 913 121 scaleXYZ;
#X obj 913 99 translateXYZ -3.63 -2.66 0;
#X obj 913 77 gemhead 1200;
#X obj 1073 117 gemhead 5500;
#X obj 1134 567 gemhead 5400;
#X obj 888 537 gemhead 5300;
#X obj 819 924 rectangle;
#X obj 1064 954 rectangle;
#X obj 1004 504 rectangle;
#X msg 873 853 \$1 0 0 0.2;
#X msg 1118 882 0 \$1 0 0.2;
#X msg 1046 459 0 0 \$1 0.2;
#X msg 1218 293 font VT323.ttf;
#X obj 680 749 maxlib/scale 0 1 1 8 0;
#X obj 1153 439 maxlib/scale 0 1 1 8 0;
#X obj 1123 928 maxlib/scale 0 1 1 8 0;
#X floatatom 910 459 5 0 0 0 - - -;
#X floatatom 1245 632 5 0 0 0 - - -;
#X obj 1133 589 translateXYZ -3.63 0 0;
#X obj 880 748 maxlib/scale 0 1 0.9 1.13 0;
#X obj 1125 779 maxlib/scale 0 1 0.9 1.13 0;
#X obj 1064 328 maxlib/scale 0 1 0.9 1.13 0;
#X obj 257 718 gemhead 9000;
#X obj 257 740 t a b;
#X obj 257 762 pix_snap 0 0 500 500;
#X obj 257 784 pix_write;
#X msg 339 819 file ok;
#X msg 309 868 auto 1;
#X msg 312 742 snap;
#X obj 545 770 t b b;
#X obj 546 748 bng 15 250 50 0 empty empty empty 17 7 0 10 -4034 -1
-1;
#X msg 357 893 auto 0;
#X obj 609 775 t b b;
#X obj 610 753 bng 15 250 50 0 empty empty empty 17 7 0 10 -262144
-1 -1;
#X floatatom 73 487 5 0 0 0 - - -;
#X floatatom 146 488 5 0 0 0 - - -;
#X floatatom 188 455 5 0 0 0 - - -;
#X obj 264 561 + 1;
#X obj 154 747 sel 0;
#X connect 0 1 4 0;
#X connect 1 0 0 1;
#X connect 1 1 28 0;
#X connect 1 1 108 0;
#X connect 1 2 29 0;
#X connect 1 2 100 0;
#X connect 2 0 1 0;
#X connect 3 0 2 0;
#X connect 4 0 25 0;
#X connect 4 0 195 0;
#X connect 4 1 26 0;
#X connect 4 1 196 0;
#X connect 4 2 27 0;
#X connect 4 2 197 0;
#X connect 5 0 6 0;
#X connect 6 0 104 0;
#X connect 8 0 9 0;
#X connect 9 0 8 0;
#X connect 11 0 0 2;
#X connect 12 0 0 3;
#X connect 13 0 14 0;
#X connect 14 0 62 0;
#X connect 15 0 16 0;
#X connect 15 0 17 0;
#X connect 16 0 15 1;
#X connect 17 0 18 0;
#X connect 17 0 199 0;
#X connect 18 0 24 0;
#X connect 19 0 20 0;
#X connect 20 0 14 1;
#X connect 20 0 64 0;
#X connect 21 0 31 0;
#X connect 22 0 23 0;
#X connect 22 0 198 0;
#X connect 23 0 21 0;
#X connect 24 0 33 0;
#X connect 30 0 24 1;
#X connect 31 0 34 0;
#X connect 32 0 31 1;
#X connect 35 0 11 0;
#X connect 36 0 12 0;
#X connect 37 0 6 1;
#X connect 37 0 84 0;
#X connect 38 0 17 1;
#X connect 39 0 23 1;
#X connect 40 0 53 0;
#X connect 41 0 54 0;
#X connect 42 0 55 0;
#X connect 43 0 95 1;
#X connect 45 0 110 0;
#X connect 47 0 46 0;
#X connect 48 0 46 0;
#X connect 49 0 95 0;
#X connect 50 0 45 0;
#X connect 51 0 56 0;
#X connect 52 0 57 0;
#X connect 53 0 50 0;
#X connect 54 0 51 0;
#X connect 55 0 52 0;
#X connect 56 0 110 1;
#X connect 57 0 49 1;
#X connect 57 0 49 1;
#X connect 57 0 49 1;
#X connect 58 0 53 1;
#X connect 59 0 46 0;
#X connect 60 0 54 1;
#X connect 61 0 55 1;
#X connect 63 0 0 0;
#X connect 65 0 15 0;
#X connect 66 0 6 2;
#X connect 66 0 85 0;
#X connect 67 0 6 3;
#X connect 67 0 86 0;
#X connect 68 0 71 0;
#X connect 69 0 68 0;
#X connect 70 0 69 1;
#X connect 71 0 45 0;
#X connect 72 0 75 0;
#X connect 73 0 72 0;
#X connect 74 0 73 1;
#X connect 75 0 56 0;
#X connect 76 0 79 0;
#X connect 77 0 76 0;
#X connect 78 0 77 1;
#X connect 79 0 57 0;
#X connect 80 0 81 0;
#X connect 80 0 99 0;
#X connect 81 0 2 0;
#X connect 82 0 80 0;
#X connect 83 0 94 0;
#X connect 84 0 153 0;
#X connect 84 0 142 0;
#X connect 84 0 170 0;
#X connect 84 0 174 0;
#X connect 84 0 180 0;
#X connect 85 0 117 0;
#X connect 85 0 113 0;
#X connect 85 0 171 0;
#X connect 85 0 176 0;
#X connect 85 0 181 0;
#X connect 86 0 138 0;
#X connect 86 0 127 0;
#X connect 86 0 172 0;
#X connect 86 0 175 0;
#X connect 86 0 182 0;
#X connect 87 0 94 0;
#X connect 88 0 91 1;
#X connect 90 0 88 0;
#X connect 91 0 94 0;
#X connect 92 0 91 0;
#X connect 94 0 58 0;
#X connect 94 0 60 0;
#X connect 94 0 61 0;
#X connect 94 0 96 0;
#X connect 95 0 44 0;
#X connect 95 0 44 1;
#X connect 95 0 46 0;
#X connect 95 0 46 1;
#X connect 97 0 94 0;
#X connect 98 0 94 0;
#X connect 103 0 101 0;
#X connect 104 0 102 0;
#X connect 105 0 106 0;
#X connect 106 0 101 0;
#X connect 107 0 101 0;
#X connect 109 0 101 0;
#X connect 110 0 49 0;
#X connect 111 0 115 0;
#X connect 113 0 112 0;
#X connect 114 0 112 0;
#X connect 115 0 112 0;
#X connect 116 0 114 0;
#X connect 117 0 115 1;
#X connect 118 0 120 0;
#X connect 119 0 121 0;
#X connect 120 0 122 0;
#X connect 121 0 168 0;
#X connect 122 0 119 0;
#X connect 123 0 112 0;
#X connect 124 0 123 0;
#X connect 125 0 129 0;
#X connect 127 0 126 0;
#X connect 128 0 126 0;
#X connect 129 0 126 0;
#X connect 130 0 128 0;
#X connect 131 0 133 0;
#X connect 132 0 134 0;
#X connect 133 0 135 0;
#X connect 134 0 169 0;
#X connect 135 0 132 0;
#X connect 136 0 126 0;
#X connect 137 0 136 0;
#X connect 138 0 129 1;
#X connect 139 0 125 0;
#X connect 140 0 144 0;
#X connect 142 0 141 0;
#X connect 143 0 141 0;
#X connect 144 0 141 0;
#X connect 145 0 143 0;
#X connect 146 0 148 0;
#X connect 147 0 149 0;
#X connect 148 0 150 0;
#X connect 149 0 167 0;
#X connect 150 0 147 0;
#X connect 151 0 141 0;
#X connect 152 0 151 0;
#X connect 153 0 144 1;
#X connect 154 0 140 0;
#X connect 155 0 146 0;
#X connect 156 0 155 0;
#X connect 157 0 156 0;
#X connect 158 0 118 0;
#X connect 159 0 158 0;
#X connect 160 0 159 0;
#X connect 161 0 131 0;
#X connect 162 0 161 0;
#X connect 163 0 162 0;
#X connect 164 0 139 0;
#X connect 165 0 179 0;
#X connect 166 0 154 0;
#X connect 170 0 149 1;
#X connect 171 0 121 1;
#X connect 172 0 134 1;
#X connect 173 0 126 0;
#X connect 173 0 141 0;
#X connect 173 0 112 0;
#X connect 174 0 150 1;
#X connect 175 0 135 1;
#X connect 176 0 122 1;
#X connect 177 0 156 1;
#X connect 178 0 159 1;
#X connect 179 0 111 0;
#X connect 180 0 147 1;
#X connect 180 0 147 2;
#X connect 181 0 119 1;
#X connect 181 0 119 2;
#X connect 182 0 132 1;
#X connect 182 0 132 2;
#X connect 183 0 184 0;
#X connect 184 0 185 0;
#X connect 184 1 189 0;
#X connect 185 0 186 0;
#X connect 187 0 186 0;
#X connect 188 0 186 0;
#X connect 189 0 185 0;
#X connect 190 0 188 0;
#X connect 190 1 47 0;
#X connect 191 0 190 0;
#X connect 192 0 186 0;
#X connect 193 0 192 0;
#X connect 193 1 48 0;
#X connect 194 0 193 0;
#X connect 198 0 22 1;
#X connect 199 0 22 0;
#X connect 199 0 89 0;
