#N canvas 221 73 476 385 10;
#X obj 23 291 cnv 15 165 55 empty empty empty 20 12 0 14 -257985 -66577
0;
#X text 32 316 http://hellocatfood.com;
#N canvas 288 82 931 998 loadimage 0;
#X obj 200 40 cnv 15 150 100 empty empty empty 20 12 0 14 -204786 -66577
0;
#X obj 32 415 pix_data;
#X obj 47 215 pix_info . . .;
#X obj 47 195 pix_image;
#X obj 47 5 gemhead;
#X obj 54 445 unpack f f f;
#X floatatom 62 345 5 0 0 0 - - -, f 5;
#X floatatom 77 385 5 0 0 0 - - -, f 5;
#X obj 54 467 s r;
#X obj 88 467 s g;
#X obj 123 467 s b;
#X obj 58 235 s w;
#X obj 70 255 s h;
#X obj 62 325 r x;
#X obj 77 365 r y;
#X obj 32 295 r bang;
#X obj 67 85 openpanel;
#X msg 67 105 open \$1;
#X obj 207 45 bng 30 250 50 0 empty empty empty 17 7 0 10 -258113 -1
-1;
#X text 86 234 width;
#X text 98 254 height;
#X text 245 50 open image;
#X obj 67 127 t a b;
#X floatatom 207 85 8 0 0 0 - - -, f 8;
#X floatatom 207 115 8 0 0 0 - - -, f 8;
#X text 262 84 width;
#X text 262 114 height;
#X obj 94 147 s initbang;
#X connect 1 1 5 0;
#X connect 2 0 1 1;
#X connect 2 1 11 0;
#X connect 2 1 23 0;
#X connect 2 2 12 0;
#X connect 2 2 24 0;
#X connect 3 0 2 0;
#X connect 4 0 3 0;
#X connect 5 0 8 0;
#X connect 5 1 9 0;
#X connect 5 2 10 0;
#X connect 6 0 1 2;
#X connect 7 0 1 3;
#X connect 13 0 6 0;
#X connect 14 0 7 0;
#X connect 15 0 1 0;
#X connect 16 0 17 0;
#X connect 17 0 22 0;
#X connect 18 0 16 0;
#X connect 22 0 3 0;
#X connect 22 1 27 0;
#X coords 0 -1 1 1 150 100 1 200 40;
#X restore 24 16 pd loadimage;
#N canvas 41 14 935 1002 pixelinfo 0;
#X obj 29 112 f;
#X obj 69 112 + 1;
#X obj 29 184 %;
#X floatatom 29 226 5 0 0 0 - - -, f 5;
#X floatatom 129 266 5 0 0 0 - - -, f 5;
#X obj 129 112 f;
#X obj 129 184 %;
#X obj 29 366 /;
#X obj 44 346 r w;
#X obj 129 366 /;
#X obj 144 346 r h;
#X obj 29 388 s x;
#X obj 129 388 s y;
#X obj 44 154 r w;
#X obj 144 154 r h;
#X obj 29 62 r bang;
#X obj 59 308 sel 0;
#X obj 169 112 + 1;
#X msg 129 92 0;
#X msg 29 92 0;
#X text 163 266 curren line;
#X text 63 226 curren column;
#X obj 129 32 t b b;
#X obj 129 12 r initbang;
#X obj 309 12 r r;
#X obj 337 52 r g;
#X obj 366 92 r b;
#X msg 309 162 color \$1 \$2 \$3;
#X obj 309 142 pack f f f;
#X obj 309 184 s pixelcolor;
#X obj 400 300 cnv 15 150 150 empty empty empty 20 12 0 14 -262130
-66577 0;
#X floatatom 409 306 5 0 0 0 - - -, f 5;
#X obj 409 366 nbx 5 14 -1e+37 1e+37 0 0 empty empty empty 0 -8 0 10
-258113 -1 -1 1 256 0;
#X obj 409 386 nbx 5 14 -1e+37 1e+37 0 0 empty empty empty 0 -8 0 10
-4034 -1 -1 0.47451 256 0;
#X obj 409 406 nbx 5 14 -1e+37 1e+37 0 0 empty empty empty 0 -8 0 10
-4032 -1 -1 1 256 0;
#X floatatom 409 336 5 0 0 0 - - -, f 5;
#X text 467 364 red value;
#X text 467 384 green value;
#X text 467 404 blue value;
#X text 443 336 current line;
#X text 443 306 current column;
#X obj 679 365 separator;
#X obj 679 497 text3d;
#X obj 679 427 colorRGB 0 0 0;
#X msg 1309 397 justify left base;
#X obj 1309 357 loadbang;
#X msg 769 467 text Red: \$1;
#X obj 899 497 text3d;
#X obj 899 427 colorRGB 0 0 0;
#X obj 899 365 separator;
#X obj 899 407 scaleXYZ 0.4 0.4 0.4;
#X obj 679 407 scaleXYZ 0.4 0.4 0.4;
#X msg 989 467 text Green: \$1;
#X obj 1109 497 text3d;
#X obj 1109 427 colorRGB 0 0 0;
#X obj 1109 365 separator;
#X obj 1109 407 scaleXYZ 0.4 0.4 0.4;
#X msg 1199 467 text Blue: \$1;
#X obj 679 623 separator;
#X obj 679 787 text3d;
#X obj 679 717 colorRGB 0 0 0;
#X obj 899 787 text3d;
#X obj 899 717 colorRGB 0 0 0;
#X obj 899 623 separator;
#X obj 899 697 scaleXYZ 0.4 0.4 0.4;
#X obj 679 697 scaleXYZ 0.4 0.4 0.4;
#X msg 769 757 text X: \$1;
#X msg 989 757 text Y: \$1;
#X obj 679 875 separator;
#X obj 679 1067 text3d;
#X obj 679 937 colorRGB 0 0 0;
#X obj 679 917 scaleXYZ 0.4 0.4 0.4;
#X msg 769 1037 text Scale: x \$1;
#X obj 899 875 separator;
#X obj 899 1067 text3d;
#X obj 899 937 colorRGB 0 0 0;
#X obj 899 917 scaleXYZ 0.4 0.4 0.4;
#X msg 989 1037 text Speed: \$1;
#X obj 679 261 translateXYZ;
#X obj 679 231 gemhead 4000;
#X obj 1309 419 t a;
#X msg 1319 377 font VT323.ttf;
#X obj 769 447 r r;
#X obj 989 447 r g;
#X obj 1199 447 r b;
#X obj 769 1017 r scale;
#X obj 989 1017 r speed;
#X obj 679 385 translateXYZ -3.5 3 0;
#X obj 899 385 translateXYZ -3.5 2.5 0;
#X obj 1109 385 translateXYZ -3.5 2 0;
#X obj 679 665 translateXYZ -3.5 1.3 0;
#X obj 899 675 translateXYZ -3.5 0.8 0;
#X obj 679 895 translateXYZ -3.5 0 0;
#X obj 899 895 translateXYZ -3.5 -0.5 0;
#X obj 409 426 tgl 15 0 empty empty empty 17 7 0 10 -262144 -1 -1 1
1;
#X text 427 424 display info;
#X obj 404 466 loadbang;
#X msg 404 488 0;
#X connect 0 0 1 0;
#X connect 0 0 2 0;
#X connect 1 0 0 1;
#X connect 2 0 3 0;
#X connect 2 0 16 0;
#X connect 3 0 7 0;
#X connect 3 0 31 0;
#X connect 3 0 66 0;
#X connect 4 0 9 0;
#X connect 4 0 35 0;
#X connect 4 0 67 0;
#X connect 5 0 6 0;
#X connect 5 0 17 0;
#X connect 6 0 4 0;
#X connect 7 0 11 0;
#X connect 8 0 7 1;
#X connect 9 0 12 0;
#X connect 10 0 9 1;
#X connect 13 0 2 1;
#X connect 14 0 6 1;
#X connect 15 0 0 0;
#X connect 16 0 5 0;
#X connect 17 0 5 1;
#X connect 18 0 5 0;
#X connect 19 0 0 0;
#X connect 22 0 18 0;
#X connect 22 1 19 0;
#X connect 23 0 22 0;
#X connect 24 0 28 0;
#X connect 24 0 32 0;
#X connect 25 0 28 1;
#X connect 25 0 33 0;
#X connect 26 0 28 2;
#X connect 26 0 34 0;
#X connect 27 0 29 0;
#X connect 28 0 27 0;
#X connect 41 0 87 0;
#X connect 43 0 42 0;
#X connect 44 0 80 0;
#X connect 45 0 44 0;
#X connect 45 0 81 0;
#X connect 46 0 42 0;
#X connect 48 0 47 0;
#X connect 49 0 88 0;
#X connect 50 0 48 0;
#X connect 51 0 43 0;
#X connect 52 0 47 0;
#X connect 54 0 53 0;
#X connect 55 0 89 0;
#X connect 56 0 54 0;
#X connect 57 0 53 0;
#X connect 58 0 90 0;
#X connect 60 0 59 0;
#X connect 62 0 61 0;
#X connect 63 0 91 0;
#X connect 64 0 62 0;
#X connect 65 0 60 0;
#X connect 66 0 59 0;
#X connect 67 0 61 0;
#X connect 68 0 92 0;
#X connect 70 0 69 0;
#X connect 71 0 70 0;
#X connect 72 0 69 0;
#X connect 73 0 93 0;
#X connect 75 0 74 0;
#X connect 76 0 75 0;
#X connect 77 0 74 0;
#X connect 78 0 41 0;
#X connect 78 0 49 0;
#X connect 78 0 55 0;
#X connect 78 0 58 0;
#X connect 78 0 63 0;
#X connect 78 0 73 0;
#X connect 78 0 68 0;
#X connect 79 0 78 0;
#X connect 80 0 42 0;
#X connect 80 0 47 0;
#X connect 80 0 53 0;
#X connect 80 0 59 0;
#X connect 80 0 61 0;
#X connect 80 0 69 0;
#X connect 80 0 74 0;
#X connect 81 0 80 0;
#X connect 82 0 46 0;
#X connect 83 0 52 0;
#X connect 84 0 57 0;
#X connect 85 0 72 0;
#X connect 86 0 77 0;
#X connect 87 0 51 0;
#X connect 88 0 50 0;
#X connect 89 0 56 0;
#X connect 90 0 65 0;
#X connect 91 0 64 0;
#X connect 92 0 71 0;
#X connect 93 0 76 0;
#X connect 94 0 79 0;
#X connect 96 0 97 0;
#X connect 97 0 94 0;
#X coords 0 -1 1 1 150 150 1 400 300;
#X restore 22 129 pd pixelinfo;
#N canvas 1061 238 450 300 start 0;
#X obj 150 20 cnv 15 120 90 empty empty empty 20 12 0 14 -260097 -66577
0;
#X obj 156 27 tgl 30 0 empty empty empty 17 7 0 10 -4034 -1 -1 1 1
;
#X floatatom 43 107 5 0 0 0 - - -, f 5;
#X obj 16 149 s bang;
#X obj 16 127 metro;
#X msg 16 199 \; pd dsp 1;
#X obj 16 179 loadbang;
#X text 194 32 start;
#X text 197 62 speed;
#X obj 156 69 moonlib/mknob 32 400 50 0.001 0 0 empty empty empty -2
-6 0 8 -262144 -1 -1 37400 1;
#X floatatom 200 85 5 0 0 0 - - -, f 5;
#X msg 76 199 50;
#X obj 156 126 s speed;
#X connect 1 0 4 0;
#X connect 2 0 4 1;
#X connect 4 0 3 0;
#X connect 6 0 5 0;
#X connect 6 0 11 0;
#X connect 9 0 2 0;
#X connect 9 0 10 0;
#X connect 9 0 12 0;
#X connect 11 0 9 0;
#X coords 0 -1 1 1 120 90 1 150 20;
#X restore 294 16 pd start;
#N canvas 297 152 450 569 audio 0;
#X obj 280 10 cnv 15 170 220 empty empty empty 20 12 0 14 -261682 -66577
0;
#X obj 31 296 r r;
#X obj 131 296 r g;
#X obj 231 296 r b;
#X obj 32 464 dac~;
#X obj 31 316 * 100;
#X obj 131 316 * 100;
#X obj 231 316 * 100;
#X obj 32 422 *~ 0.1;
#X obj 31 376 +~;
#X obj 30 400 +~;
#X text 327 83 red;
#X text 327 133 green;
#X text 327 183 blue;
#X obj 288 18 moonlib/mknob 32 400 0 2000 0 0 empty empty empty -2
-6 0 8 -262144 -1 -1 6500 1;
#X obj 288 88 moonlib/mknob 32 2000 0 2000 0 0 empty empty empty -2
-6 0 8 -262144 -1 -1 32565 1;
#X obj 288 138 moonlib/mknob 32 2000 0 2000 0 0 empty empty empty -2
-6 0 8 -262144 -1 -1 32565 1;
#X obj 288 188 moonlib/mknob 32 2000 0 2000 0 0 empty empty empty -2
-6 0 8 -262144 -1 -1 32565 1;
#X floatatom 327 104 5 0 0 0 - - -, f 5;
#X floatatom 327 154 5 0 0 0 - - -, f 5;
#X floatatom 326 204 5 0 0 0 - - -, f 5;
#X floatatom 330 34 5 0 0 0 - - -, f 5;
#X obj 31 336 selectWaveform;
#N canvas 1085 574 450 300 wsel 0;
#X obj 120 120 cnv 15 70 35 empty empty empty 20 12 0 14 -261234 -66577
0;
#X obj 125 135 hradio 15 1 0 4 empty empty square 0 -8 0 10 -262144
-1 -1 2;
#X msg 208 189 label sine;
#X msg 223 210 label saw;
#X msg 239 230 label square;
#X obj 125 165 outlet;
#X obj 125 85 inlet;
#X obj 208 69 loadbang;
#X msg 208 91 0;
#X obj 208 169 sel 0 1 2 3;
#X msg 255 250 label off;
#X connect 1 0 5 0;
#X connect 1 0 9 0;
#X connect 2 0 1 0;
#X connect 3 0 1 0;
#X connect 4 0 1 0;
#X connect 6 0 1 0;
#X connect 7 0 8 0;
#X connect 8 0 1 0;
#X connect 9 0 2 0;
#X connect 9 1 3 0;
#X connect 9 2 4 0;
#X connect 9 3 10 0;
#X connect 10 0 1 0;
#X coords 0 -1 1 1 70 35 1 120 120;
#X restore 367 85 pd wsel;
#X obj 131 336 selectWaveform;
#X obj 231 336 selectWaveform;
#N canvas 1085 574 450 300 wsel 0;
#X obj 120 120 cnv 15 70 35 empty empty empty 20 12 0 14 -261234 -66577
0;
#X obj 125 135 hradio 15 1 0 4 empty empty square 0 -8 0 10 -262144
-1 -1 2;
#X msg 208 189 label sine;
#X msg 223 210 label saw;
#X msg 239 230 label square;
#X obj 125 165 outlet;
#X obj 125 85 inlet;
#X obj 208 69 loadbang;
#X msg 208 91 0;
#X obj 208 169 sel 0 1 2 3;
#X msg 255 250 label off;
#X connect 1 0 5 0;
#X connect 1 0 9 0;
#X connect 2 0 1 0;
#X connect 3 0 1 0;
#X connect 4 0 1 0;
#X connect 6 0 1 0;
#X connect 7 0 8 0;
#X connect 8 0 1 0;
#X connect 9 0 2 0;
#X connect 9 1 3 0;
#X connect 9 2 4 0;
#X connect 9 3 10 0;
#X connect 10 0 1 0;
#X coords 0 -1 1 1 70 35 1 120 120;
#X restore 367 135 pd wsel;
#N canvas 1085 574 450 300 wsel 0;
#X obj 120 120 cnv 15 70 35 empty empty empty 20 12 0 14 -261234 -66577
0;
#X obj 125 135 hradio 15 1 0 4 empty empty square 0 -8 0 10 -262144
-1 -1 2;
#X msg 208 189 label sine;
#X msg 223 210 label saw;
#X msg 239 230 label square;
#X obj 125 165 outlet;
#X obj 125 85 inlet;
#X obj 208 69 loadbang;
#X msg 208 91 0;
#X obj 208 169 sel 0 1 2 3;
#X msg 255 250 label off;
#X connect 1 0 5 0;
#X connect 1 0 9 0;
#X connect 2 0 1 0;
#X connect 3 0 1 0;
#X connect 4 0 1 0;
#X connect 6 0 1 0;
#X connect 7 0 8 0;
#X connect 8 0 1 0;
#X connect 9 0 2 0;
#X connect 9 1 3 0;
#X connect 9 2 4 0;
#X connect 9 3 10 0;
#X connect 10 0 1 0;
#X coords 0 -1 1 1 70 35 1 120 120;
#X restore 367 185 pd wsel;
#X text 328 13 scale;
#N canvas 1065 554 450 300 wsel 0;
#X obj 120 120 cnv 15 70 35 empty empty empty 20 12 0 14 -261234 -66577
0;
#X obj 125 135 hradio 15 1 0 4 empty empty square 0 -8 0 10 -262144
-1 -1 2;
#X msg 208 189 label sine;
#X msg 223 210 label saw;
#X msg 239 230 label square;
#X obj 125 165 outlet;
#X obj 125 85 inlet;
#X obj 208 69 loadbang;
#X msg 208 91 0;
#X obj 208 169 sel 0 1 2 3;
#X msg 255 250 label off;
#X connect 1 0 5 0;
#X connect 1 0 9 0;
#X connect 2 0 1 0;
#X connect 3 0 1 0;
#X connect 4 0 1 0;
#X connect 6 0 1 0;
#X connect 7 0 8 0;
#X connect 8 0 1 0;
#X connect 9 0 2 0;
#X connect 9 1 3 0;
#X connect 9 2 4 0;
#X connect 9 3 10 0;
#X connect 10 0 1 0;
#X coords 0 -1 1 1 70 35 1 120 120;
#X restore 367 15 pd wsel;
#X obj 288 295 s scale;
#X connect 1 0 5 0;
#X connect 2 0 6 0;
#X connect 3 0 7 0;
#X connect 5 0 22 0;
#X connect 6 0 24 0;
#X connect 7 0 25 0;
#X connect 8 0 4 0;
#X connect 8 0 4 1;
#X connect 9 0 10 0;
#X connect 10 0 8 0;
#X connect 14 0 15 0;
#X connect 14 0 16 0;
#X connect 14 0 17 0;
#X connect 14 0 21 0;
#X connect 14 0 30 0;
#X connect 15 0 5 1;
#X connect 15 0 18 0;
#X connect 16 0 6 1;
#X connect 16 0 19 0;
#X connect 17 0 7 1;
#X connect 17 0 20 0;
#X connect 22 0 9 0;
#X connect 23 0 22 1;
#X connect 24 0 9 1;
#X connect 25 0 10 1;
#X connect 26 0 24 1;
#X connect 27 0 25 1;
#X connect 29 0 23 0;
#X connect 29 0 26 0;
#X connect 29 0 27 0;
#X coords 0 -1 1 1 170 220 1 280 10;
#X restore 244 126 pd audio;
#X obj 183 16 cnv 15 100 60 empty empty empty 20 12 0 14 -228856 -66577
0;
#N canvas 47 72 450 300 gemwin 0;
#X obj 132 136 gemwin;
#X obj 67 89 outlet;
#X obj 67 10 inlet;
#X obj 67 41 route create;
#X msg 67 70 set destroy;
#X msg 142 68 set create;
#X msg 132 112 create \, 1;
#X msg 198 112 destroy;
#X obj 251 112 r pixelcolor;
#X connect 2 0 3 0;
#X connect 3 0 4 0;
#X connect 3 0 6 0;
#X connect 3 1 5 0;
#X connect 3 1 7 0;
#X connect 4 0 1 0;
#X connect 5 0 1 0;
#X connect 6 0 0 0;
#X connect 7 0 0 0;
#X connect 8 0 0 0;
#X restore 188 55 pd gemwin;
#X msg 188 36 destroy;
#X text 184 15 create window;
#X text 32 297 antonio roberts 2014;
#X connect 7 0 8 0;
#X connect 8 0 7 0;
